HIERARCHY
ROOT Joint1
{
	OFFSET 0.000000 0.000000 0.000000
	CHANNELS 6 Xposition Yposition Zposition Xrotation Yrotation Zrotation
	JOINT Joint2
	{
		OFFSET -0.000000 0.000000 1.456275
		CHANNELS 6 Xposition Yposition Zposition Xrotation Yrotation Zrotation
		JOINT Joint3
		{
			OFFSET -0.000000 0.000002 1.471446
			CHANNELS 6 Xposition Yposition Zposition Xrotation Yrotation Zrotation
			JOINT Joint4
			{
				OFFSET 0.625745 0.000000 0.917755
				CHANNELS 6 Xposition Yposition Zposition Xrotation Yrotation Zrotation
				JOINT Joint5
				{
					OFFSET -0.629534 0.000001 0.940221
					CHANNELS 6 Xposition Yposition Zposition Xrotation Yrotation Zrotation
					JOINT Joint6
					{
						OFFSET -0.000001 0.113772 1.960660
						CHANNELS 6 Xposition Yposition Zposition Xrotation Yrotation Zrotation
						JOINT Joint7
						{
							OFFSET -0.669733 -0.113771 0.388340
							CHANNELS 6 Xposition Yposition Zposition Xrotation Yrotation Zrotation
							End Site
							{
								OFFSET 0.005509 0.005509 0.438980
							}
						}
					}
				}
			}
		}
	}
}
MOTION
Frames: 27
Frame Time: 0.041667
0.000000 0.000000 0.000000 -0.000000 1.019410 -40.077924 -0.000000 0.000000 1.456275 0.000006 -49.529650 0.000002 -0.000000 0.000002 1.471446 -0.000001 -1.133463 -44.274437 0.625745 0.000001 0.917755 0.000003 144.108222 -0.000002 -0.629533 0.000001 0.940221 -0.000003 1.709737 125.620061 -0.000001 0.113772 1.960661 -88.303882 155.572544 0.000000 -0.669733 -0.113771 0.388340 -0.654650 3.564914 132.118712 
0.000000 0.000000 0.000000 -0.000000 1.019410 -40.053370 -0.000000 0.000000 1.456275 0.000004 -49.526866 0.000002 -0.000000 0.000002 1.471446 0.000000 -1.133466 -44.247328 0.625744 0.000000 0.917755 0.000006 144.102648 -0.000002 -0.629533 0.000001 0.940220 -0.000001 1.709737 125.543098 -0.000001 0.113772 1.960660 -88.303882 155.532355 0.000003 -0.669733 -0.113771 0.388341 -0.654683 3.564916 132.120447 
0.000000 0.000000 0.000000 -0.000000 1.019410 -40.011590 -0.000000 0.000000 1.456275 0.000003 -49.522119 0.000002 -0.000000 0.000002 1.471446 -0.000003 -1.133462 -44.201204 0.625744 0.000000 0.917755 0.000000 144.093168 -0.000002 -0.629533 0.000001 0.940221 -0.000004 1.709736 125.412109 -0.000001 0.113772 1.960660 -88.303875 155.463971 0.000001 -0.669733 -0.113771 0.388340 -0.654735 3.564918 132.123412 
0.000000 0.000000 0.000000 -0.000000 1.019410 -39.951870 -0.000000 0.000000 1.456275 -0.000002 -49.515351 -0.000003 -0.000000 0.000002 1.471446 -0.000003 -1.133463 -44.135286 0.625744 0.000000 0.917755 0.000003 144.079617 -0.000002 -0.629533 0.000001 0.940221 -0.000003 1.709738 125.224907 -0.000001 0.113772 1.960660 -88.303882 155.366231 0.000003 -0.669733 -0.113771 0.388341 -0.654806 3.564922 132.127660 
0.000000 0.000000 0.000000 -0.000000 1.019410 -39.873524 -0.000000 0.000000 1.456275 0.000001 -49.506444 0.000001 -0.000000 0.000002 1.471446 0.000002 -1.133465 -44.048781 0.625744 0.000001 0.917755 0.000002 144.061858 -0.000003 -0.629534 0.000001 0.940221 -0.000003 1.709737 124.979293 -0.000001 0.113772 1.960660 -88.303882 155.238001 0.000003 -0.669733 -0.113771 0.388340 -0.654908 3.564927 132.133220 
0.000000 0.000000 0.000000 -0.000000 1.019410 -39.775846 -0.000000 -0.000000 1.456275 -0.000002 -49.495359 0.000007 -0.000000 0.000002 1.471446 0.000001 -1.133464 -43.940943 0.625744 0.000000 0.917755 0.000003 144.039701 -0.000000 -0.629534 0.000001 0.940220 -0.000003 1.709737 124.673055 -0.000001 0.113772 1.960660 -88.303882 155.078120 0.000002 -0.669734 -0.113771 0.388340 -0.655029 3.564933 132.140159 
0.000000 0.000000 0.000000 -0.000000 1.019410 -39.658117 -0.000000 0.000000 1.456275 0.000006 -49.481995 -0.000001 -0.000000 0.000002 1.471446 0.000001 -1.133464 -43.810975 0.625745 0.000001 0.917755 0.000005 144.013009 -0.000002 -0.629533 0.000001 0.940221 -0.000001 1.709737 124.303979 -0.000001 0.113772 1.960660 -88.303882 154.885440 0.000001 -0.669734 -0.113771 0.388340 -0.655182 3.564941 132.148519 
0.000000 0.000000 0.000000 -0.000000 1.019410 -39.519652 -0.000000 0.000000 1.456275 0.000006 -49.466276 -0.000001 -0.000000 0.000002 1.471446 -0.000000 -1.133462 -43.658105 0.625745 0.000000 0.917755 0.000003 143.981590 -0.000001 -0.629533 0.000001 0.940221 -0.000001 1.709736 123.869893 -0.000001 0.113772 1.960660 -88.303882 154.658787 0.000001 -0.669733 -0.113771 0.388340 -0.655354 3.564949 132.158341 
0.000000 0.000000 0.000000 -0.000000 1.019410 -39.359740 -0.000000 -0.000000 1.456275 0.000000 -49.448128 0.000001 -0.000000 0.000002 1.471446 0.000002 -1.133464 -43.481558 0.625745 0.000000 0.917755 0.000002 143.945322 -0.000000 -0.629534 0.000001 0.940221 -0.000002 1.709738 123.368557 -0.000001 0.113772 1.960661 -88.303882 154.397055 0.000000 -0.669733 -0.113771 0.388340 -0.655555 3.564959 132.169707 
0.000000 0.000000 0.000000 -0.000000 1.019410 -39.177678 -0.000000 0.000000 1.456275 0.000001 -49.427463 0.000005 -0.000000 0.000002 1.471446 -0.000004 -1.133459 -43.280552 0.625745 0.000000 0.917755 0.000002 143.904026 -0.000000 -0.629533 0.000001 0.940220 -0.000003 1.709736 122.797785 -0.000001 0.113772 1.960661 -88.303875 154.099067 0.000000 -0.669733 -0.113771 0.388340 -0.655786 3.564970 132.182602 
0.000000 0.000000 0.000000 -0.000000 1.019410 -38.972762 -0.000000 0.000000 1.456275 -0.000003 -49.404203 -0.000001 -0.000000 0.000002 1.471446 0.000000 -1.133459 -43.054323 0.625745 0.000001 0.917755 0.000004 143.857554 -0.000000 -0.629534 0.000001 0.940221 -0.000002 1.709735 122.155365 -0.000001 0.113772 1.960661 -88.303882 153.763664 0.000003 -0.669733 -0.113771 0.388340 -0.656043 3.564983 132.197164 
0.000000 0.000000 0.000000 -0.000000 1.019410 -38.744296 -0.000000 -0.000000 1.456275 -0.000003 -49.378272 0.000002 -0.000000 0.000002 1.471446 0.000000 -1.133462 -42.802094 0.625745 0.000000 0.917755 0.000002 143.805726 0.000001 -0.629533 0.000001 0.940221 -0.000005 1.709736 121.439124 -0.000001 0.113772 1.960660 -88.303882 153.389711 0.000001 -0.669733 -0.113771 0.388340 -0.656330 3.564997 132.213392 
0.000000 0.000000 0.000000 -0.000000 1.019410 -38.491565 -0.000000 0.000000 1.456275 0.000004 -49.349575 0.000000 -0.000000 0.000002 1.471446 0.000001 -1.133463 -42.523071 0.625745 0.000000 0.917755 0.000003 143.748407 -0.000001 -0.629533 0.000001 0.940220 -0.000002 1.709737 120.646809 -0.000001 0.113772 1.960660 -88.303882 152.976061 -0.000001 -0.669733 -0.113771 0.388341 -0.656648 3.565012 132.231342 
0.000000 0.000000 0.000000 -0.000000 1.019410 -38.213877 -0.000000 -0.000000 1.456275 0.000002 -49.318064 -0.000000 -0.000000 0.000002 1.471446 0.000002 -1.133460 -42.216498 0.625744 0.000000 0.917755 0.000006 143.685419 -0.000005 -0.629534 0.000001 0.940221 0.000001 1.709735 119.776233 -0.000001 0.113772 1.960660 -88.303882 152.521553 0.000001 -0.669733 -0.113771 0.388339 -0.656997 3.565029 132.251040 
0.000000 0.000000 0.000000 -0.000000 1.019410 -37.910524 -0.000000 0.000000 1.456275 -0.000003 -49.283626 0.000001 -0.000000 0.000002 1.471446 0.000001 -1.133466 -41.881593 0.625745 0.000000 0.917755 0.000007 143.616625 -0.000001 -0.629533 0.000001 0.940221 0.000000 1.709735 118.825211 -0.000001 0.113772 1.960660 -88.303875 152.025025 0.000002 -0.669733 -0.113771 0.388341 -0.657381 3.565047 132.272569 
0.000000 0.000000 0.000000 -0.000000 1.019410 -37.580804 -0.000000 0.000000 1.456275 0.000006 -49.246200 0.000002 -0.000000 0.000002 1.471446 0.000002 -1.133464 -41.517571 0.625745 0.000000 0.917755 0.000006 143.541835 -0.000001 -0.629534 0.000001 0.940221 -0.000002 1.709737 117.791530 -0.000001 0.113772 1.960660 -88.303875 151.485359 0.000001 -0.669733 -0.113771 0.388340 -0.657795 3.565066 132.295983 
0.000000 0.000000 0.000000 -0.000000 1.019410 -37.224312 -0.000000 -0.000000 1.456275 0.000003 -49.205731 -0.000003 -0.000000 0.000002 1.471446 -0.000004 -1.133462 -41.124002 0.625744 0.000001 0.917755 0.000004 143.460965 -0.000001 -0.629534 0.000001 0.940221 -0.000001 1.709737 116.673947 -0.000001 0.113772 1.960661 -88.303882 150.901869 0.000002 -0.669733 -0.113771 0.388339 -0.658242 3.565088 132.321282 
0.000000 0.000000 0.000000 -0.000000 1.019410 -36.841897 -0.000000 -0.000000 1.456275 0.000001 -49.162325 0.000001 -0.000000 0.000002 1.471446 0.000000 -1.133465 -40.701814 0.625745 0.000000 0.917755 0.000003 143.374249 -0.000001 -0.629534 0.000001 0.940221 -0.000001 1.709738 115.475044 -0.000001 0.113772 1.960660 -88.303875 150.275964 0.000002 -0.669733 -0.113771 0.388340 -0.658726 3.565110 132.348439 
0.000000 0.000000 0.000000 -0.000000 1.019410 -36.434681 -0.000000 -0.000000 1.456275 0.000001 -49.116105 0.000001 -0.000000 0.000002 1.471446 -0.000003 -1.133464 -40.252241 0.625744 0.000001 0.917755 0.000002 143.281878 -0.000004 -0.629534 0.000001 0.940221 -0.000002 1.709737 114.198413 -0.000001 0.113772 1.960660 -88.303882 149.609447 0.000001 -0.669733 -0.113771 0.388341 -0.659241 3.565133 132.377358 
0.000000 0.000000 0.000000 -0.000000 1.019410 -36.003812 -0.000000 -0.000000 1.456275 -0.000001 -49.067191 0.000006 -0.000000 0.000002 1.471446 -0.000002 -1.133464 -39.776556 0.625745 0.000000 0.917755 0.000007 143.184152 0.000000 -0.629533 0.000001 0.940221 0.000001 1.709735 112.847627 -0.000001 0.113772 1.960660 -88.303882 148.904203 0.000002 -0.669733 -0.113771 0.388340 -0.659781 3.565159 132.407944 
0.000000 0.000000 0.000000 -0.000000 1.019410 -35.550417 -0.000000 -0.000000 1.456275 0.000001 -49.015722 0.000005 -0.000000 0.000002 1.471446 -0.000006 -1.133465 -39.276002 0.625745 0.000000 0.917755 0.000005 143.081303 -0.000000 -0.629533 0.000001 0.940221 0.000000 1.709733 111.426231 -0.000001 0.113772 1.960660 -88.303882 148.162103 -0.000002 -0.669733 -0.113771 0.388339 -0.660353 3.565184 132.440127 
0.000000 0.000000 0.000000 -0.000000 1.019410 -35.075651 -0.000000 -0.000000 1.456275 -0.000003 -48.961832 0.000003 -0.000000 0.000002 1.471446 -0.000001 -1.133461 -38.751840 0.625745 0.000000 0.917755 0.000007 142.973645 0.000001 -0.629533 0.000001 0.940221 -0.000003 1.709738 109.937816 -0.000001 0.113772 1.960661 -88.303882 147.385032 0.000001 -0.669733 -0.113771 0.388340 -0.660951 3.565214 132.473841 
0.000000 0.000000 0.000000 -0.000000 1.019410 -34.581828 -0.000000 -0.000000 1.456275 0.000003 -48.905777 -0.000000 -0.000000 0.000002 1.471446 -0.000000 -1.133463 -38.206658 0.625744 0.000001 0.917755 0.000007 142.861630 0.000001 -0.629534 0.000001 0.940221 -0.000001 1.709732 108.389679 -0.000001 0.113772 1.960661 -88.303882 146.576761 0.000004 -0.669733 -0.113771 0.388339 -0.661572 3.565238 132.508894 
0.000000 0.000000 0.000000 -0.000000 1.019410 -34.076084 -0.000000 -0.000000 1.456275 -0.000003 -48.848372 0.000003 -0.000000 0.000002 1.471446 -0.000002 -1.133462 -37.648307 0.625744 0.000000 0.917755 0.000007 142.746910 0.000000 -0.629533 0.000001 0.940221 0.000000 1.709737 106.804160 -0.000001 0.113772 1.960660 -88.303875 145.748983 0.000001 -0.669733 -0.113771 0.388341 -0.662215 3.565267 132.544821 
0.000000 0.000000 0.000000 -0.000000 1.019410 -33.566739 -0.000000 0.000000 1.456275 0.000001 -48.790548 -0.000003 -0.000000 0.000002 1.471446 0.000000 -1.133461 -37.085974 0.625744 0.000000 0.917756 0.000008 142.631384 0.000000 -0.629534 0.000001 0.940221 -0.000004 1.709736 105.207337 -0.000001 0.113772 1.960661 -88.303882 144.915304 -0.000001 -0.669733 -0.113771 0.388340 -0.662849 3.565292 132.580952 
0.000000 0.000000 0.000000 -0.000000 1.019410 -33.062101 -0.000000 0.000000 1.456275 -0.000001 -48.733270 0.000000 -0.000001 0.000002 1.471446 -0.000003 -1.133467 -36.528849 0.625744 0.000001 0.917755 0.000004 142.516924 -0.000001 -0.629534 0.000001 0.940221 -0.000003 1.709736 103.625301 -0.000001 0.113772 1.960661 -88.303882 144.089329 -0.000002 -0.669733 -0.113771 0.388340 -0.663489 3.565320 132.616783 
0.000000 0.000000 0.000000 -0.000000 1.019410 -32.570498 -0.000000 0.000000 1.456275 0.000002 -48.677464 0.000002 -0.000000 0.000002 1.471446 0.000001 -1.133461 -35.986115 0.625745 0.000001 0.917755 0.000006 142.405428 0.000002 -0.629534 0.000001 0.940221 -0.000004 1.709738 102.084117 -0.000001 0.113771 1.960661 -88.303882 143.284706 0.000000 -0.669733 -0.113771 0.388340 -0.664112 3.565346 132.651686 
